#!OML:ASF F:\VICON\USERDATA\INSTALL\rory3\rory3.ASF
:FULLY-SPECIFIED
:DEGREES
758
root -1.75117 18.508 -0.0509387 -175.096 -71.6548 172.092
lowerback 8.62719 -1.94713 -7.5522
upperback 2.42971 -3.39863 -1.50768
thorax -1.96045 -1.73544 3.00459
lowerneck 0.850248 -15.0094 -12.3527
upperneck 13.2785 -22.6036 13.4276
head 6.84909 -11.1797 4.3733
rclavicle -3.59303e-014 1.03368e-014
rhumerus -0.380327 -2.61024 -21.4302
rradius 93.4278
rwrist -39.3812
rhand 3.95706 0.138167
rfingers 7.12502
rthumb 29.3747 -27.5605
lclavicle -3.59303e-014 1.03368e-014
lhumerus -17.8458 -1.53409 31.6923
lradius 106.918
lwrist -30.1413
lhand -37.8347 26.8684
lfingers 7.12502
lthumb -10.8798 56.5666
rfemur -16.0592 18.5823 10.0041
rtibia 32.2028
rfoot -12.0096 -12.6304
rtoes -9.82571
lfemur -0.817832 -1.53748 -16.4141
ltibia 23.1382
lfoot -16.5618 15.8764
ltoes -7.90539
759
root -1.70612 18.5135 -0.0112918 -176.732 -71.5674 173.891
lowerback 8.58647 -1.84052 -6.99531
upperback 2.417 -3.20253 -1.50194
thorax -2.00331 -1.63519 2.68287
lowerneck 0.943687 -14.9111 -11.865
upperneck 13.4341 -22.5183 13.3493
head 6.80559 -11.1316 4.30674
rclavicle 1.13804e-014 -2.38542e-015
rhumerus -0.844151 -1.71417 -22.2434
rradius 95.0652
rwrist -39.944
rhand 7.6971 1.18009
rfingers 7.12502
rthumb 32.939 -25.833
lclavicle 1.13804e-014 -2.38542e-015
lhumerus -17.2612 -1.43419 31.3885
lradius 107.082
lwrist -30.4773
lhand -37.8889 26.576
lfingers 7.12502
lthumb -10.9321 56.2714
rfemur -16.255 18.5668 10.4047
rtibia 31.9355
rfoot -11.625 -12.3571
rtoes -9.50528
lfemur -1.08966 -1.28639 -15.7783
ltibia 23.191
lfoot -16.4803 15.5428
ltoes -7.58639
760
root -1.66314 18.5223 0.02873 -177.516 -71.4824 174.768
lowerback 8.63797 -1.7348 -6.75315
upperback 2.34675 -3.04874 -1.54731
thorax -2.13551 -1.55213 2.4919
lowerneck 0.989678 -14.758 -11.4896
upperneck 13.71 -22.3724 13.274
head 6.81423 -11.0545 4.25553
rclavicle 1.98785e-014 -2.78299e-014
rhumerus -1.38256 -0.76248 -23.0908
rradius 96.2169
rwrist -40.4868
rhand 11.4768 2.68084
rfingers 7.12502
rthumb 36.5256 -23.5048
lclavicle 1.98785e-014 -2.78299e-014
lhumerus -16.7779 -1.30794 31.1823
lradius 107.208
lwrist -30.6316
lhand -37.9261 26.2366
lfingers 7.12502
lthumb -10.968 55.9301
rfemur -16.3726 18.6886 10.4448
rtibia 31.5699
rfoot -11.3235 -12.1052
rtoes -9.27379
lfemur -1.34298 -1.05689 -15.491
ltibia 23.2981
lfoot -16.4616 15.2454
ltoes -7.14233
761
root -1.62248 18.5337 0.0682159 -177.607 -71.4097 174.912
lowerback 8.81154 -1.73764 -6.84817
upperback 2.20279 -3.07876 -1.52268
thorax -2.37234 -1.554 2.58461
lowerneck 0.751858 -14.4928 -11.4288
upperneck 14.2648 -22.054 13.0823
head 6.96015 -10.891 4.19981
rclavicle -5.44173e-014 -1.59028e-015
rhumerus -1.4309 0.16858 -24.0703
rradius 96.5528
rwrist -41.0068
rhand 14.7063 3.77856
rfingers 7.12502
rthumb 39.5751 -21.5743
lclavicle -5.44173e-014 -1.59028e-015
lhumerus -16.728 -0.87349 31.021
lradius 107.394
lwrist -30.3911
lhand -37.7658 26.3178
lfingers 7.12502
lthumb -10.8134 56.0195
rfemur -16.4391 19.1589 10.1799
rtibia 31.135
rfoot -11.1635 -11.9875
rtoes -8.29166
lfemur -1.58403 -0.922486 -15.4907
ltibia 23.3714
lfoot -16.4131 15.0799
ltoes -6.70532
762
root -1.57997 18.5434 0.107571 -178.139 -71.3737 175.511
lowerback 8.95092 -1.72023 -6.82369
upperback 2.11206 -3.06193 -1.41426
thorax -2.54085 -1.53593 2.69041
lowerneck 0.352889 -14.2688 -11.4522
upperneck 14.9171 -21.784 12.8777
head 7.18117 -10.7441 4.12859
rclavicle -5.46658e-016 -5.56597e-015
rhumerus -1.47852 0.856285 -24.912
rradius 96.346
rwrist -41.6208
rhand 16.9688 4.64995
rfingers 7.12502
rthumb 41.7015 -20.0393
lclavicle -5.46658e-016 -5.56597e-015
lhumerus -16.5597 -0.307988 30.9105
lradius 107.487
lwrist -30.1727
lhand -37.8434 26.451
lfingers 7.12502
lthumb -10.8883 56.1487
rfemur -16.4879 18.9626 10.0993
rtibia 30.6412
rfoot -10.7585 -11.3197
rtoes -7.85163
lfemur -1.79674 -0.958905 -15.3446
ltibia 23.3886
lfoot -16.4324 14.996
ltoes -5.94804
763
root -1.53856 18.5551 0.149251 -178.795 -71.3456 176.218
lowerback 9.00165 -1.60699 -6.67794
upperback 2.07515 -2.90092 -1.37666
thorax -2.62808 -1.45198 2.63555
lowerneck 0.0944652 -14.1061 -11.2312
upperneck 15.3664 -21.5945 12.7128
head 7.30214 -10.6346 4.04447
rclavicle 3.21037e-014 3.18055e-015
rhumerus -1.91181 1.24476 -25.7384
rradius 95.5632
rwrist -42.0132
rhand 18.4315 5.50444
rfingers 7.12502
rthumb 43.0712 -18.7163
lclavicle 3.21037e-014 3.18055e-015
lhumerus -16.0774 0.0170478 30.7759
lradius 107.553
lwrist -29.8635
lhand -37.9854 26.4249
lfingers 7.12502
lthumb -11.0252 56.1153
rfemur -16.432 19.2139 10.0368
rtibia 30.0466
rfoot -10.4889 -10.9929
rtoes -7.21044
lfemur -2.01204 -0.764255 -15.14
ltibia 23.4223
lfoot -16.2568 14.8038
ltoes -5.99727
764
root -1.49891 18.5657 0.191277 -179.783 -71.3487 177.253
lowerback 9.02595 -1.48144 -6.43982
upperback 2.06901 -2.70941 -1.302
thorax -2.67321 -1.35542 2.56219
lowerneck -0.193382 -13.9635 -10.8513
upperneck 15.7746 -21.3913 12.3884
head 7.37855 -10.5168 3.89141
rclavicle 2.76808e-014 6.36111e-015
rhumerus -2.41088 1.34574 -26.5226
rradius 94.2556
rwrist -42.2675
rhand 19.2482 6.20012
rfingers 7.12502
rthumb 43.8341 -17.7444
lclavicle 2.76808e-014 6.36111e-015
lhumerus -15.5249 0.307695 30.6696
lradius 107.639
lwrist -29.2767
lhand -38.0978 26.7273
lfingers 7.12502
lthumb -11.1336 56.412
rfemur -16.2384 19.6823 10.0579
rtibia 29.3635
rfoot -10.4926 -10.703
rtoes -6.25659
lfemur -2.24093 -0.37328 -14.7939
ltibia 23.4973
lfoot -15.875 14.5176
ltoes -6.60844
